<svg width="704" height="581" xmlns="http://www.w3.org/2000/svg"><g fill="#FFF" fill-rule="nonzero"><path d="M249.1 429.4c-31.1 0-56.1-6.4-87.1-12.7L75 461l24.8-75.9C37.5 341 .3 284.2.3 215 .3 95 112.3.6 249.1.6c122.3 0 229.5 75.5 251 177-7.8-.9-15.9-1.5-23.9-1.5-118.2 0-211.5 89.4-211.5 199.5 0 18.4 2.8 36.1 7.7 52.9-7.8.6-15.5.9-23.3.9zm-80.9-321.6c-18.6 0-37.4 12.5-37.4 31.5 0 18.9 18.8 31.5 37.4 31.5 18.6 0 31.1-12.7 31.1-31.5 0-19-12.4-31.5-31.1-31.5zm174.1 63c18.8 0 31.2-12.7 31.2-31.5 0-19-12.4-31.5-31.2-31.5-18.6 0-37.4 12.5-37.4 31.5 0 18.8 18.8 31.5 37.4 31.5z"/><path d="M616 517.7l18.7 63.1-68.2-37.8c-24.9 6.3-49.9 12.6-74.6 12.6-118.3 0-211.7-82-211.7-182.9 0-100.8 93.3-183 211.7-183 111.7 0 211.3 82.1 211.3 183-.1 56.7-37.3 107.1-87.2 145zM423.2 290.6c-12.3 0-24.8 12.7-24.8 25.3 0 12.6 12.5 25.2 24.8 25.2 18.9 0 31.2-12.5 31.2-25.2-.1-12.6-12.3-25.3-31.2-25.3zm136.8 0c-12.3 0-24.6 12.7-24.6 25.3 0 12.6 12.3 25.2 24.6 25.2 18.7 0 31.2-12.5 31.2-25.2 0-12.6-12.5-25.3-31.2-25.3z"/></g></svg>