<svg xmlns="http://www.w3.org/2000/svg" width="41" height="41" viewBox="0 0 41 41">
  <g fill-rule="evenodd" stroke="#FFF" stroke-width=".4">
    <path d="M38.4273469,18.2863277 C37.47654,18.2863277 36.6680922,18.8836666 36.3424005,19.7215665 L34.7811416,19.7215665 C34.601123,16.4828738 33.3410011,13.4486288 31.170966,11.0233275 L32.2772453,9.91704821 C32.5554532,10.0414261 32.861471,10.1117929 33.1838949,10.1117929 C34.4194621,10.1117929 35.4243136,9.10698334 35.4243136,7.87137423 C35.4243136,6.63580702 34.419504,5.62932164 33.1838949,5.62932164 C31.9482858,5.62932164 30.9418423,6.63413122 30.9418423,7.87137423 C30.9418423,8.19376879 31.0138514,8.49979916 31.136587,8.77802383 L30.0303078,9.88430309 C27.6115421,7.714268 24.5743225,6.45415032 21.3241087,6.27412752 L21.3241087,4.71613642 C22.1636425,4.39210377 22.7642492,3.58203889 22.7642492,2.62955616 C22.7642492,1.39398895 21.7594396,0.387503573 20.5221966,0.387503573 C19.2866294,0.387503573 18.280144,1.39231315 18.280144,2.62955616 C18.280144,3.57872918 18.875849,4.38881082 19.712115,4.71450252 L19.712115,6.27576142 C16.4652528,6.45578003 13.4295414,7.7159019 11.013876,9.88593699 L9.91249842,8.78455945 C10.0368763,8.50471345 10.1105193,8.19869983 10.1105193,7.87300813 C10.1105193,6.63744092 9.10570973,5.63095555 7.86846672,5.63095555 C6.6328995,5.63095555 5.62641413,6.63576512 5.62641413,7.87300813 C5.62641413,9.10857535 6.6312237,10.1134268 7.86846672,10.1134268 C8.18922318,10.1134268 8.49362384,10.0430558 8.77017271,9.92031602 L9.87318415,11.0233275 C7.70314906,13.4420932 6.44303138,16.4763801 6.26300859,19.7215665 L4.7099611,19.7215665 C4.38429454,18.8836666 3.57586357,18.2863277 2.62501432,18.2863277 C1.38944711,18.2863277 0.384595641,19.2911373 0.384595641,20.5267464 C0.384595641,21.7623136 1.38940522,22.768799 2.62501432,22.768799 C3.57582125,22.768799 4.38590331,22.1714601 4.7099611,21.3335602 L6.26300859,21.3335602 C6.44302719,24.5885919 7.70478297,27.6274454 9.87318415,30.0397593 L8.7669049,31.1444046 C8.48869699,31.0216649 8.18431309,30.9496599 7.8602553,30.9496599 C6.62468809,30.9496599 5.61820271,31.9544695 5.61820271,33.1917125 C5.61820271,34.4272797 6.62301229,35.4321312 7.8602553,35.4321312 C9.09582251,35.4321312 10.100674,34.4273216 10.100674,33.1917125 C10.100674,32.8676799 10.0286649,32.5632876 9.90592928,32.2850629 L10.9991373,31.1918549 C13.43265,33.3537205 16.46015,34.6072606 19.7103637,34.792227 L19.7103637,36.3452745 C18.8740977,36.6709411 18.2783928,37.4793716 18.2783928,38.4285866 C18.2783928,39.6641538 19.2832024,40.6706391 20.5204454,40.6706391 C21.7560126,40.6706391 22.762498,39.6658296 22.762498,38.4285866 C22.762498,37.4761457 22.1618913,36.6660645 21.3223575,36.3420067 L21.3223575,34.792227 C24.4072117,34.6154804 27.220335,33.4633597 29.4282013,31.704105 C29.6344042,31.5404548 29.8242388,31.350616 30.0222723,31.172248 L31.1301855,32.2801612 C31.0074457,32.5567352 30.9370747,32.8611191 30.9370747,33.1818672 C30.9370747,34.4174344 31.9418842,35.4239198 33.1791273,35.4239198 C34.4146945,35.4239198 35.4195459,34.4191102 35.4195459,33.1818672 C35.4195459,31.9463 34.4147364,30.9398146 33.1791273,30.9398146 C32.8534607,30.9398146 32.5458006,31.0134576 32.2675759,31.1378355 L31.1661984,30.0364579 C33.3378674,27.6111147 34.5963512,24.5737695 34.776374,21.3302589 L36.335999,21.3302589 C36.6600316,22.1681588 37.4700965,22.7654977 38.4209453,22.7654977 C39.6565125,22.7654977 40.6630296,21.7606881 40.6630296,20.5234451 C40.6695419,19.2911457 39.66309,18.2863361 38.4275228,18.2863361 L38.4273469,18.2863277 Z M33.185445,7.24155 C33.5323859,7.24155 33.8155039,7.524668 33.8155039,7.87160884 C33.8155039,8.21855387 33.5323859,8.50166768 33.185445,8.50166768 C33.0185186,8.50166768 32.8679606,8.43293475 32.7550577,8.32655917 C32.7501476,8.32164907 32.7501476,8.31673898 32.7452375,8.31182889 C32.7403274,8.30691879 32.7354174,8.30691879 32.7305115,8.3020087 C32.6241359,8.18908912 32.5554029,8.03852688 32.5554029,7.87162141 C32.5554029,7.52304248 32.836887,7.24155 33.1854618,7.24155 L33.185445,7.24155 Z M7.87165074,8.50003378 C7.5247099,8.50003378 7.2415919,8.21691577 7.2415919,7.86997494 C7.2415919,7.5230341 7.5247099,7.2399161 7.87165074,7.2399161 C8.22022967,7.2399161 8.50170958,7.5230341 8.50170958,7.86997494 C8.50170958,8.21855387 8.22022548,8.50003378 7.87165074,8.50003378 Z M2.62807266,21.1569309 C2.28112763,21.1569309 1.99801382,20.8738129 1.99801382,20.5268721 C1.99801382,20.1799312 2.28113182,19.8968132 2.62807266,19.8968132 C2.97665159,19.8968132 3.25813856,20.1799312 3.25813856,20.5268721 C3.25976792,20.875451 2.9766474,21.1569309 2.62807266,21.1569309 Z M7.86494754,33.8205313 C7.51800251,33.8205313 7.2348887,33.5374133 7.2348887,33.1904724 C7.2348887,32.8418935 7.5180067,32.5604136 7.86494754,32.5604136 C8.21188838,32.5604136 8.49500638,32.8435316 8.49500638,33.1904724 C8.49500638,33.5374133 8.21188838,33.8205313 7.86494754,33.8205313 Z M33.185445,32.553878 C33.5323859,32.553878 33.8155039,32.836996 33.8155039,33.1839368 C33.8155039,33.5325157 33.5323859,33.8139956 33.185445,33.8139956 C32.8385,33.8139956 32.5553862,33.5308776 32.5553862,33.1839368 C32.5553862,32.850084 32.8499583,32.553878 33.185445,32.553878 Z M20.5251963,1.99818182 C20.8737752,1.99818182 21.1552551,2.28129982 21.1552551,2.62824066 C21.1552551,2.97681959 20.8721371,3.2582995 20.5251963,3.2582995 C20.1782513,3.2582995 19.8951304,2.9751815 19.8951304,2.62824066 C19.8934993,2.28129563 20.1766215,1.99818182 20.5251963,1.99818182 Z M20.5251963,39.0589131 C20.1782513,39.0589131 19.8951374,38.7757951 19.8951374,38.4288543 C19.8951374,38.0819134 20.1782554,37.7987954 20.5251963,37.7987954 C20.8737752,37.7987954 21.1552551,38.0819134 21.1552551,38.4288543 C21.1552551,38.7757993 20.8721371,39.0589131 20.5251963,39.0589131 Z M28.1253674,30.6686032 C23.9358679,33.8139956 17.5925466,34.1920561 12.9300525,30.6702371 L12.9316906,28.5836568 C12.9316906,26.7491168 14.4307354,25.2566076 16.2751207,25.2566076 L17.8674657,25.2566076 L19.7249223,29.3446375 C19.854206,29.6310275 20.1389621,29.8159562 20.453183,29.8175901 L20.4580931,29.8175901 C20.7706674,29.8175901 21.053798,29.6375715 21.1879877,29.3544409 L23.11256,25.2566076 L24.7752886,25.2566076 C26.6229417,25.2566076 28.1268882,26.7491168 28.1268882,28.5836568 L28.1253674,30.6686032 Z M33.2101631,20.540069 C33.2068911,23.7967346 31.971328,26.8620238 29.737445,29.2249016 L29.737445,28.5834054 C29.737445,25.8602307 27.5101394,23.6444044 24.7737259,23.6444044 L22.5987891,23.6444044 C22.2862147,23.6444044 22.0030841,23.824423 21.8688945,24.1075536 L20.4680096,27.0909381 L19.1178596,24.1189909 C18.9869377,23.8309628 18.7005477,23.6460383 18.3846972,23.6460383 L16.2735664,23.6460383 C13.5422222,23.6460383 11.3199021,25.8619065 11.3199021,28.5850393 L11.3199021,29.2347469 C9.08279317,26.8781534 7.84228234,23.8097639 7.83901453,20.5415353 C7.83901453,20.5366252 7.84228653,20.5333532 7.84228653,20.5284431 C7.84228653,20.523533 7.83901453,20.520261 7.83901453,20.515351 C7.84555853,13.5683228 13.4768241,7.85342641 20.5072233,7.84714216 C20.5121334,7.84714216 20.5154054,7.85041416 20.5203155,7.85041416 C20.5252256,7.85041416 20.5284976,7.84714216 20.5334077,7.84714216 C27.5621311,7.85368616 33.2032923,13.5603627 33.2101631,20.515351 C33.2101631,20.520261 33.2067235,20.523533 33.2067235,20.5284431 C33.2067235,20.5317151 33.2101631,20.5349871 33.2101631,20.5398972 L33.2101631,20.540069 Z M38.4273469,21.1570566 C38.080406,21.1570566 37.797288,20.8739386 37.797288,20.5269978 C37.797288,20.1800569 38.080406,19.8969389 38.4273469,19.8969389 C38.7759258,19.8969389 39.0574057,20.1800569 39.0574057,20.5269978 C39.0574057,20.8755767 38.7759258,21.1570566 38.4273469,21.1570566 Z"/>
    <path d="M20.5251963,11.6748784 C17.8691373,11.6748784 15.7072718,13.8236309 15.7072718,16.466828 C15.7072718,19.0083461 17.7300041,22.7770523 20.5251963,22.7770523 C23.3203885,22.7770523 25.3431208,19.0081366 25.3431208,16.466828 C25.3414827,13.8254743 23.1812552,11.6748784 20.5251963,11.6748784 Z M20.5251963,21.1649329 C18.9344852,21.1649329 17.3192655,18.4303208 17.3192655,16.4664091 C17.3192655,14.7120562 18.7577721,13.2866627 20.5251963,13.2866627 C22.2926205,13.2866627 23.731127,14.7136901 23.731127,16.4664091 C23.731127,18.4318709 22.1158655,21.1649329 20.5251963,21.1649329 Z"/>
  </g>
</svg>
