<svg xmlns="http://www.w3.org/2000/svg" width="37" height="37" viewBox="0 0 37 37">
  <g fill-rule="evenodd" stroke="#FFF" stroke-width=".5" transform="translate(1 1)">
    <path d="M17.3883598,34.9567185 C7.77671991,34.9567185 0,27.1436397 0,17.5683598 C0,7.99163991 7.77671991,0.179999998 17.3883598,0.179999998 C27,0.179999998 34.7767196,7.99163991 34.7767196,17.5683598 C34.7767196,27.1436397 26.9636397,34.9567185 17.3883598,34.9567185 Z M17.3883598,2.30363637 C8.9636399,2.30363637 2.15999997,9.14363629 2.15999997,17.5683562 C2.15999997,25.9567197 8.9999999,32.7967175 17.3883598,32.7967175 C25.7767197,32.7967175 32.6167196,25.9567161 32.6167196,17.5683562 C32.6167196,9.14363629 25.7767197,2.30363637 17.3883598,2.30363637 Z"/>
    <path d="M17.5683598 8.3167199C14.2917838 8.3167199 11.5916399 10.9801439 11.5916399 14.2934398 11.5916399 14.8334398 12.0233519 15.2651518 12.5633519 15.2651518 13.1033518 15.2651518 13.5350638 14.8334398 13.5350638 14.2934398 13.5350638 12.0617279 15.3350638 10.2617999 17.5667038 10.2617999 19.7998198 10.2603923 21.5997837 12.0603959 21.5997837 14.2919998 21.5997837 16.5236038 19.7997838 18.3236398 17.5681438 18.3236398 17.0281438 18.3236398 16.5964318 18.7553518 16.5964318 19.2953518L16.5964318 22.2119277C16.5964318 22.7519277 17.0281438 23.1836397 17.5681438 23.1836397 18.1081438 23.1836397 18.5398558 22.7519277 18.5398558 22.2119277L18.5398558 20.1602158C21.3832798 19.6919278 23.5431357 17.2436398 23.5431357 14.2569358 23.5431357 10.9803599 20.8797118 8.3169359 17.5678558 8.3169359L17.5683598 8.3167199zM18.9367198 26.1367197C18.9367198 27.9606237 16.2001438 27.9606237 16.2001438 26.1367197 16.2001438 24.3128157 18.9367198 24.3128157 18.9367198 26.1367197"/>
  </g>
</svg>
