<svg xmlns="http://www.w3.org/2000/svg" width="38" height="44" viewBox="0 0 38 44">
  <path fill-rule="evenodd" stroke="#FFF" stroke-width=".5" d="M17.9155171,0.0013990628 C17.461904,0.0535830317 17.0856886,0.499002643 17.0947205,0.970461759 L17.0947205,6.69552692 C17.0875181,7.19871244 17.5285326,7.66272897 18.0163426,7.66272897 C18.5041525,7.66272897 18.9451533,7.19868381 18.9379647,6.69552692 L18.9379647,0.970461759 C18.9451625,0.461694302 18.4933557,-0.00609123079 18.0019653,0.0013990628 C17.9731646,-0.000466354266 17.9443639,-0.000466354266 17.9155632,0.0013990628 L17.9155171,0.0013990628 Z M8.7278668,3.81810917 C8.09784595,3.87029314 7.68565049,4.72753577 8.02227295,5.27919351 L10.3263281,9.11078879 C10.5621343,9.57483394 11.2047261,9.75376131 11.6331421,9.47419684 C12.0615535,9.19465145 12.1839495,8.51815867 11.8815469,8.09698471 L9.57749175,4.2802746 C9.40468761,3.98209412 9.06447082,3.79574325 8.72784836,3.81809486 L8.7278668,3.81810917 Z M27.1888783,3.81810917 C26.8918718,3.83674426 26.6074731,4.01565254 26.4544377,4.28028891 L24.1503826,8.09699902 C23.8479753,8.51817775 23.9703806,9.19468484 24.3987874,9.47421115 C24.8271988,9.75375654 25.4698044,9.57484826 25.7056014,9.1108031 L28.0096565,5.27920782 C28.1878614,4.98661882 28.1932621,4.59153208 28.025854,4.29149095 C27.8584506,3.99144506 27.5218189,3.80323831 27.1888369,3.81812825 L27.1888783,3.81810917 Z M18.015974,9.55796408 C11.9406413,9.55796408 6.95650919,14.4686387 6.95650919,20.5310056 C6.95650919,23.7476335 8.48833722,26.1964347 9.87980221,28.3433341 C11.2550467,30.4622762 12.4556437,32.29611 12.4862416,34.2921539 C12.4844398,34.3163805 12.4862416,39.1374674 12.4862416,39.1374674 C12.4862416,40.7066601 13.7354542,42 15.2511078,42 L20.7808401,42 C22.2964937,42 23.5457063,40.7066601 23.5457063,39.1374674 C23.5457063,39.1374674 23.5475035,34.3069437 23.5457063,34.2768871 C23.5817049,32.2865205 24.7805417,30.4583163 26.1521457,28.3428571 C27.5435646,26.1959576 29.0754387,23.7471564 29.0754387,20.5305286 C29.0754387,14.4681616 24.0913066,9.557487 18.015974,9.557487 L18.015974,9.55796408 Z M1.18208615,10.0201438 C0.78607437,10.0443704 0.424282413,10.3630514 0.337880345,10.7637344 C0.251478276,11.1644174 0.445885234,11.6116642 0.793290671,11.8092267 L5.58849027,14.6717593 C6.00610026,14.9214866 6.60729738,14.7537613 6.84853195,14.3213948 C7.08976653,13.8890284 6.92773615,13.2665993 6.51012155,13.0168433 L1.71492195,10.1543107 C1.55651816,10.055539 1.36751191,10.0070859 1.18213224,10.0201295 L1.18208615,10.0201438 Z M34.7203738,10.0201438 C34.5781722,10.0313268 34.4395648,10.0779145 34.3171642,10.154325 L29.5219646,13.0168576 C29.1043546,13.266585 28.9423565,13.8890236 29.1835542,14.3214091 C29.4247519,14.7537947 30.0259628,14.9214914 30.4435959,14.6717736 L35.2387955,11.809241 C35.6060066,11.6023801 35.8022291,11.112262 35.6816072,10.69667 C35.5610038,10.2810828 35.1379885,9.9828975 34.7204015,10.0201581 L34.7203738,10.0201438 Z M18.015974,11.4662953 C23.1388102,11.4662953 27.2321946,15.5513678 27.2321946,20.5309818 C27.2321946,23.11957 25.9991564,25.1677121 24.6257552,27.2846503 C23.4143291,29.1538841 22.075074,31.0752637 21.774487,33.4123784 L18.9376421,33.4123784 L18.9376421,23.7064846 C20.0050648,23.3095324 20.7808862,22.2435396 20.7808862,21.0079751 C20.7808862,19.4387825 19.5316736,18.1454426 18.01602,18.1454426 C16.5003665,18.1454426 15.2511538,19.4387825 15.2511538,21.0079751 C15.2511538,22.2435396 16.0269753,23.3095467 17.094398,23.7064846 L17.094398,33.4123784 L14.2575531,33.4123784 C13.9569476,31.0754068 12.617711,29.1539795 11.4062848,27.2846503 C10.0328376,25.1675689 8.79984548,23.1194269 8.79984548,20.5309818 C8.79984548,15.5511293 12.8931377,11.4662953 18.0160661,11.4662953 L18.015974,11.4662953 Z M0.879333307,20.053893 C0.396910238,20.0781196 -0.0224738818,20.5533573 0.000935318563,21.0528215 C0.0225335316,21.5522857 0.483358388,21.9864842 0.965781457,21.9622481 L4.19145868,21.9622481 C4.67747607,21.969705 5.12566088,21.5131119 5.12566088,21.0080706 C5.12566088,20.5030292 4.67744842,20.0464504 4.19145868,20.053893 L0.965781457,20.053893 C0.936980767,20.0520276 0.908180078,20.0520276 0.879379388,20.053893 L0.879333307,20.053893 Z M18.015974,20.053893 C18.5361835,20.053893 18.937596,20.4694803 18.937596,21.0080706 C18.937596,21.5466608 18.5361881,21.9622481 18.015974,21.9622481 C17.4957598,21.9622481 17.0943519,21.5466608 17.0943519,21.0080706 C17.0943519,20.4694803 17.4957598,20.053893 18.015974,20.053893 Z M31.7536724,20.053893 C31.2712494,20.0781196 30.8518652,20.5533573 30.8752744,21.0528215 C30.8968726,21.5522857 31.3576975,21.9864842 31.8401206,21.9622481 L35.0657978,21.9622481 C35.5518152,21.969705 36,21.5131119 36,21.0080706 C36,20.5030292 35.5517875,20.0464504 35.0657978,20.053893 L31.8401206,20.053893 C31.8113199,20.0520276 31.7825192,20.0520276 31.7537185,20.053893 L31.7536724,20.053893 Z M5.99157089,27.1954347 C5.84936922,27.2066177 5.71076187,27.2532054 5.58836124,27.3296159 L0.793161644,30.1921485 C0.377353418,30.4437365 0.217147855,31.0624538 0.458354781,31.4948394 C0.699561707,31.9272011 1.2971691,32.0949216 1.71480214,31.8470645 L6.51000173,28.9845319 C6.87721283,28.777671 7.07343538,28.2875529 6.95281349,27.8719609 C6.83221002,27.4563737 6.40919471,27.1581884 5.99160776,27.195449 L5.99157089,27.1954347 Z M29.9251743,27.1954347 C29.5273653,27.2140698 29.1601358,27.5308854 29.0683422,27.9315827 C28.9783412,28.3322609 29.1727436,28.7851422 29.5219554,28.9845176 L34.317155,31.8470502 C34.734765,32.0949121 35.3323678,31.9271868 35.5736023,31.4948251 C35.8148093,31.0624634 35.6546037,30.4437508 35.2387955,30.1921342 L30.4435959,27.3296016 C30.288791,27.2326954 30.1051855,27.1861029 29.9251835,27.1954204 L29.9251743,27.1954347 Z M14.3294857,35.3207335 L21.7024622,35.3207335 L21.7024622,39.1374436 C21.7024622,39.6834717 21.3082522,40.0916211 20.7808401,40.0916211 L15.2511078,40.0916211 C14.7237095,40.0916211 14.3294857,39.683486 14.3294857,39.1374436 L14.3294857,35.3207335 Z" transform="translate(1 1)"/>
</svg>
