<svg height="69" viewBox="0 0 427 69" width="427" xmlns="http://www.w3.org/2000/svg"><path d="m10.6555594 45.1722859h33.1506292l8.5608767 21.402192h2.0036095l-25.6826303-65.02623423h-2.3679021l-26.3201424 65.02623423h2.00360946zm32.4220439-1.8214631h-31.6934587l16.0288757-39.98111599h.1821463zm62.1399157-5.3733163h25.227265v3.3697068c0 3.5822288-.667864 6.9063658-2.00361 9.9725107-1.335746 3.066145-3.17237 5.7072401-5.509926 7.9233647s-5.084902 3.9464973-8.242121 5.19117c-3.157218 1.2446727-6.526891 1.8669997-10.10912 1.8669997-4.7965437 0-9.0010457-.8500076-12.6136324-2.5500484-3.6125866-1.7000408-6.6331494-4.0072044-9.0617791-6.92156s-4.2500746-6.3295648-5.4643894-10.2457301c-1.2143149-3.9161654-1.8214632-8.09031-1.8214632-12.5225591 0-4.4322492.6375057-8.6063938 1.9125363-12.5225591 1.2750306-3.9161654 3.1420117-7.3313746 5.6009992-10.2457302 2.4589875-2.91435562 5.4643717-5.22151919 9.0162425-6.92155996 3.5518709-1.70004076 7.6045859-2.5500484 12.1582661-2.5500484 3.400082 0 6.511717.47053994 9.334999 1.41163394 2.823282.94109399 5.31259 2.29199898 7.467999 4.05275549s3.946496 3.87059693 5.373316 6.32958443 2.413436 5.2063336 2.959878 8.2421207h1.821463c-.546442-3.3393658-1.563415-6.3447499-3.050951-9.0162425-1.487536-2.6714927-3.400053-4.96347755-5.737609-6.87602341s-5.039366-3.38488051-8.105511-4.41704812-6.420639-1.54824367-10.063584-1.54824367c-4.7965432 0-9.0769388.88036505-12.8413147 2.64112156-3.764376 1.7607565-6.9519046 4.17417103-9.5626815 7.24031599-2.6107769 3.06614495-4.6143663 6.67867735-6.0108284 10.83770565-1.3964621 4.1590284-2.0946826 8.6063897-2.0946826 13.3422176 0 4.6751121.6526844 9.0769373 1.9580729 13.2056077 1.3053884 4.1286705 3.2330843 7.7260242 5.7831454 10.7921692 2.5500612 3.0661449 5.7375898 5.4947382 9.5626815 7.2858525 3.8250918 1.7911144 8.226917 2.6866582 13.2056074 2.6866582 6.435869 0 11.930561-1.5482282 16.484242-4.644731 4.55368-3.0965029 7.710852-7.4072559 9.471608-12.9323884h.182147v16.1199489h1.821463v-30.4184345h-27.048728zm55.673722 26.7755082v-31.1470197h38.888238v-1.8214632h-38.888238v-28.41482499h41.347213v-1.82146314h-43.168677v65.02623423h43.532969v-1.8214632zm64.59889-63.20477103v65.02623423h1.821464v-62.7494053h.182146l44.443701 62.7494053h2.732194v-65.02623423h-1.821463v62.74940523h-.182146l-44.443701-62.74940523zm78.350938 63.20477103v-61.38330789h20.49146c3.27865 0 6.481358.45536124 9.608218 1.36609736 3.126861.91073613 5.934922 2.53485785 8.424268 4.87241391 2.489345 2.33755602 4.492934 5.47954852 6.010828 9.42607172 1.517893 3.9465232 2.276829 8.9554968 2.276829 15.027071 0 5.2215537-.743757 9.7599874-2.231293 13.615437-1.487535 3.8554496-3.521482 7.0429782-6.101901 9.5626815-2.580419 2.5197032-5.585803 4.401863-9.016243 5.6465357-3.430439 1.2446727-7.05815 1.8669997-10.883242 1.8669997zm-1.821463-63.20477103v65.02623423h19.945021c3.946524 0 7.7412-.6071484 11.384145-1.8214632 3.642944-1.2143148 6.891188-3.1116533 9.744828-5.6920723s5.130446-5.9349134 6.830487-10.0635839c1.70004-4.1286704 2.550048-9.1072865 2.550048-14.9359977 0-6.3751529-.834829-11.6573432-2.504512-15.8467294-1.669683-4.1893861-3.825059-7.5135231-6.466194-9.97251068-2.641135-2.45898754-5.616161-4.18936022-8.925169-5.19116996-3.309008-1.00180973-6.57243-1.50270709-9.790365-1.50270709zm81.265279 43.62404223h33.150629l8.560877 21.402192h2.003609l-25.68263-65.02623423h-2.367902l-26.320143 65.02623423h2.00361zm32.422044-1.8214631h-31.693459l16.028875-39.98111599h.182147z" fill="#fff" fill-rule="evenodd"/></svg>