<svg height="35" viewBox="0 0 36 35" width="36" xmlns="http://www.w3.org/2000/svg"><g fill="none" fill-rule="evenodd"><rect height="34.075" rx="40" stroke="#cad7e0" width="34.578571" x=".8375" y=".598377"/><path d="m13.7523852 13.3357368h-.01836c-.53244 0-.965736-.1642135-1.299888-.4964012-.334152-.3296806-.50184-.7395877-.50184-1.2272142 0-.4989083.170136-.9100689.510408-1.2359889.340272-.3246664.787032-.48762643 1.342728-.48762643.54468 0 .9804241.16296003 1.3096801.48762643.328032.32592.498168.7370806.509184 1.2359889 0 .4876265-.168912.8975336-.509184 1.2272142-.340272.3321877-.7882561.4964012-1.3427281.4964012zm-1.514088 1.5669231h3.0600001v9.714923h-3.0600001zm7.9560001 9.714923v-5.640923c0-.602952.1615681-1.0667613.4847041-1.3926813.323136-.3246664.72828-.4876264 1.215432-.4876264.499392 0 .900864.1805095 1.206864.5402751.306.3597655.459.9113224.459 1.6534172v5.3275384h3.0600001v-5.640923c0-1.3801459-.3366-2.4569354-1.0110241-3.2291151-.674424-.7721797-1.561824-1.1582695-2.660976-1.1582695-1.121184 0-2.039184.5515569-2.7540001 1.6546707l-.101592-1.3412861h-3.008592l.050184 2.1936923v7.5212307z" fill="#cad7e0"/></g></svg>