<svg height="103" viewBox="0 0 166 103" width="166" xmlns="http://www.w3.org/2000/svg" xmlns:xlink="http://www.w3.org/1999/xlink"><mask id="a" fill="#fff"><path d="m0 .72675h165.254694v101.64825h-165.254694z" fill="#fff" fill-rule="evenodd"/></mask><mask id="b" fill="#fff"><path d="m0 .72675h165.254694v101.64825h-165.254694z" fill="#fff" fill-rule="evenodd"/></mask><g fill="#fff" fill-rule="evenodd" opacity=".417006"><path d="m132.829248 88.1562375c-.016939.0135-.033878.025875-.050817.039375l-.449442-.53775c-9.264381 7.608375-21.032313 11.723625-33.1762856 11.723625-13.8965714 0-26.9168435-5.238-36.681483-14.842125-9.7646394-9.478125-15.1489116-22.199625-15.1489116-35.670375 0-10.351125 3.1302858-20.453625 9.264381-28.935 6.0098775-8.3565 14.2726122-14.592375 24.0372517-18.20925l-.3749116-.997875c-9.8911156 3.74175-18.4034149 10.1025-24.4132925 18.583875-6.2594422 8.73-9.6392925 18.957375-9.6392925 29.55825 0 13.719375 5.5084898 26.690625 15.5238231 36.4185.9417959.91575 1.9219864 1.778625 2.9191157 2.615625l-1.291864 1.50075c9.8899864 8.3565 22.6595647 12.9712495 35.8051837 12.9712495 12.8949256 0 25.2884626-4.4898745 35.1795786-12.4717495z" mask="url(#a)"/><path d="m57.0877388 17.6891625c-.2495647-.873-.3749116-1.621125-.3749116-2.494125 0-3.74175 2.503551-7.11 7.0103946-7.11 1.0016462 0 1.8779455.124875 2.6288979.374625.7509524-.62325 1.6272517-1.247625 2.503551-1.746-1.5019047-.873-3.2545034-1.371375-5.1324489-1.371375-5.5084898 0-10.1406803 4.365-10.1406803 9.85275 0 1.870875.6267347 3.74175 1.5019048 5.238.2506938-.3735.5013877-.748125.7509523-.997875.3760409-.624375.8774286-1.2465 1.2523402-1.746"/><path d="m70.6086082 7.96095c-.8762994.498375-1.6272517.997875-2.3782041 1.621125 1.6272517 1.247625 2.503551 3.367125 2.503551 5.612625 0 3.74175-2.7542449 6.984-7.0103946 6.984-2.3793333 0-4.2572789-.997875-5.5084898-2.619-.2506938.374625-.5013877.624375-.7520816.997875-.3749115.4995-.7498231.997875-1.0016462 1.49625 1.8790748 1.747125 4.3826258 2.869875 7.2622176 2.869875 5.6327075 0 10.1406803-4.24125 10.1406803-9.729 0-2.86875-1.2523401-5.48775-3.2556326-7.23375"/><path d="m52.7062422 40.6377c0 2.993625-1.7525987 5.612625-4.3814966 6.6105v1.621125 1.3725c4.2561496-1.12275 7.510653-4.8645 7.510653-9.604125 0-3.367125-1.8768163-6.36075-4.6310612-8.231625-.3760408.997875-.6267347 1.870875-1.0016462 2.743875 1.6272517 1.3725 2.503551 3.36825 2.503551 5.48775"/><path d="m46.3211143 47.7469125h-.6256055c-4.2561496 0-7.1368707-3.24225-7.1368707-7.108875 0-3.616875 2.5046803-6.984 7.1368707-6.984 1.0016463 0 2.0032926.12375 2.7531157.498375.2518231-.874125.5013877-1.746.8774286-2.619-1.1269932-.374625-2.3793334-.624375-3.6305443-.624375-5.6338367 0-10.1406802 4.366125-10.1406802 9.729 0 5.612625 4.5068435 9.85275 10.1406802 9.85275h.6256055c0-.498375-.125347-1.12275-.125347-1.621125 0-.374625.125347-.748125.125347-1.12275"/><path d="m52.9564844 59.3461125c4.5068435 0 7.0103945 3.367125 7.0103945 6.984 0 3.24225-2.0021633 6.111-5.132449 6.86025.5002585.873 1.0016463 1.621125 1.5019048 2.494125 3.8812381-1.371375 6.7608299-4.8645 6.7608299-9.354375 0-5.362875-4.6321905-9.727875-10.1406802-9.727875-1.3765579 0-2.7542449.24975-3.8801089.748125.1242177.873.2495646 1.870875.5002585 2.743875 1.0016463-.498375 2.1275102-.748125 3.3798504-.748125"/><path d="m45.9452993 66.33c0-1.870875.6267347-3.616875 1.8779456-4.98825-.2506939-.997875-.5002585-1.99575-.6256054-2.993625-2.628898 1.746-4.3814966 4.739625-4.3814966 7.981875 0 5.61375 4.5068435 9.85275 10.1406802 9.85275.3749116 0 .8762993 0 1.2523402-.12375-.5013878-.873-1.1269932-1.746-1.628381-2.619-4.0054558-.24975-6.635483-3.243375-6.635483-7.11"/><path d="m102.157303 56.9764125v11.350125c0 2.619-.876299 5.113125-4.2561493 5.113125-3.3809796 0-4.2572789-2.494125-4.2572789-5.113125v-11.350125h-3.1291564v11.973375c0 4.11525 2.6288979 7.23375 7.3864353 7.23375 4.7575373 0 7.3853063-3.1185 7.3853063-7.23375v-11.973375z"/><path d="m104.661193 21.92985h8.513429v2.619h-11.643715v-18.8325h3.130286z"/><path d="m0 31.2838875h11.0169796v2.74275h-7.88782314v4.491h7.76247624v2.743875h-7.76247624v6.111h7.88782314v2.743875h-11.0169796z"/><path d="m62.2209782 30.2860125 13.0202721 13.34475v-12.346875h3.1291565v19.580625l-13.0202721-13.095v12.346875h-3.1291565z"/><path d="m139.840884 31.284h3.130286v18.8325h-3.130286z" mask="url(#b)"/><path d="m30.4215891 59.720175v4.489875h6.7597007v2.620125h-6.7597007v8.978625h-3.1291564v-18.8325h10.1406802v2.743875z" mask="url(#b)"/><path d="m42.941151 17.4398625h.125347l3.0038095-11.723625h3.006068l-5.2589252 19.58175-6.635483-14.094-6.6343537 14.094-5.3831429-19.58175h3.1291565l3.0049388 11.723625 5.8834013-12.09825z" mask="url(#b)"/><path d="m115.302584 38.39265h-.125347l-3.004939 11.723625h-3.00381l5.257796-19.580625 6.635483 14.21775 6.635483-14.21775 5.383143 19.580625h-3.130286l-3.004938-11.723625h-.125347l-5.758055 12.223125z" mask="url(#b)"/><path d="m116.930061 64.0852875-3.004939 11.723625h-3.129156l5.257796-19.58175 6.76083 14.094 6.635483-14.094 5.256666 19.58175h-3.129156l-3.004939-11.723625-5.758054 12.09825z" mask="url(#b)"/><path d="m74.8653224 56.9764125c1.7525987 0 3.7558912 0 5.257796.873 1.6283809.873 2.6288979 2.743875 2.6288979 4.489875 0 2.743875-1.8768163 4.989375-4.6321904 5.238l6.0098775 8.231625h-3.5051973l-5.6338367-7.981875h-2.1286395v7.981875h-3.1291564v-18.8325zm-2.0032925 8.3565h1.3776871c2.503551 0 5.5084898.12375 5.5084898-2.86875 0-2.993625-3.1302857-2.86875-5.6338367-2.86875h-1.2523402z" mask="url(#b)"/><path d="m85.5064871 5.7157875c1.7525986 0 3.7558911 0 5.2577959.873 1.6283809.873 2.503551 2.743875 2.503551 4.489875 0 2.745-1.7514694 4.989375-4.6310612 5.238l6.1340952 8.231625h-3.5051973l-5.7591836-7.981875h-2.0032925v7.981875h-3.1291565v-18.8325zm-2.0032925 8.3565h1.377687c2.5035511 0 5.3831429.124875 5.3831429-2.86875s-3.1302857-2.867625-5.5084898-2.867625h-1.2523401z" mask="url(#b)"/><path d="m121.812494 21.92985h1.752599c4.131931 0 8.01204-1.497375 8.01204-6.86025 0-5.48775-3.880109-6.73425-8.01204-6.73425h-1.752599zm-3.130286-16.2135h5.132449c6.009878 0 10.892762 2.867625 10.892762 9.35325s-4.757537 9.47925-10.892762 9.47925h-5.132449z" mask="url(#b)"/><path d="m163.62699 46.8741375c-1.001646.62325-2.128639.873-3.505197.873-4.131932 0-7.010394-3.1185-7.010394-6.985125 0-3.740625 2.503551-7.108875 7.010394-7.108875 1.376558 0 2.503551.24975 3.505197.748125l1.501905-2.244375c-1.376558-.748125-3.129156-1.247625-5.007102-1.247625-5.50849 0-10.14068 4.366125-10.14068 9.85275 0 5.488875 4.63219 9.729 10.14068 9.729 1.877946 0 3.630544-.374625 5.132449-1.247625z" mask="url(#b)"/><path d="m30.5471619 46.8741375c-1.0016463.62325-2.1286395.873-3.3798503.873-4.2572789 0-7.1368708-3.1185-7.1368708-6.985125 0-3.740625 2.503551-7.108875 7.1368708-7.108875 1.2512108 0 2.378204.24975 3.3798503.748125l1.6272517-2.244375c-1.5019048-.748125-3.2556326-1.247625-5.007102-1.247625-5.6338368 0-10.1406803 4.366125-10.1406803 9.85275 0 5.488875 4.5068435 9.729 10.1406803 9.729 1.7514694 0 3.5051972-.374625 5.007102-1.247625z" mask="url(#b)"/><path d="m102.032182 40.76235c0-3.74175-2.5035507-7.108875-7.0103942-7.108875-4.6321905 0-7.1368708 3.367125-7.1368708 7.108875 0 3.866625 2.8795918 6.984 7.1368708 6.984 4.1308027 0 7.0103942-3.117375 7.0103942-6.984m3.130286 0c0 5.48775-4.63332 9.729-10.1406802 9.729-5.6338368 0-10.1406803-4.24125-10.1406803-9.729s4.5068435-9.85275 10.1406803-9.85275c5.5073602 0 10.1406802 4.365 10.1406802 9.85275" mask="url(#b)"/></g></svg>