<svg xmlns="http://www.w3.org/2000/svg" width="42" height="42" viewBox="0 0 42 42">
  <path fill="#9AA9B7" fill-opacity=".6" fill-rule="evenodd" d="M0,156 L14.5185185,156 L14.5185185,137.679012 L7.25925926,137.679012 C7.14403235,136.296289 7.23045123,134.769556 7.51851852,133.098765 C7.8065858,131.427975 8.29629284,129.814823 8.98765432,128.259259 C9.6790158,126.703696 10.5432047,125.320994 11.5802469,124.111111 C12.6172891,122.901229 13.8847662,122.008233 15.382716,121.432099 L15.382716,114 C12.847724,114.691361 10.6008328,115.843613 8.64197531,117.45679 C6.68311778,119.069967 5.06996519,120.942376 3.80246914,123.074074 C2.53497309,125.205772 1.58436531,127.510276 0.950617284,129.987654 C0.316869259,132.465033 0,134.971181 0,137.506173 L0,156 Z M26.617284,156 L41.1358025,156 L41.1358025,137.679012 L33.8765432,137.679012 C33.7613163,136.296289 33.8477352,134.769556 34.1358025,133.098765 C34.4238698,131.427975 34.9135768,129.814823 35.6049383,128.259259 C36.2962998,126.703696 37.1604886,125.320994 38.1975309,124.111111 C39.2345731,122.901229 40.5020501,122.008233 42,121.432099 L42,114 C39.4650079,114.691361 37.2181168,115.843613 35.2592593,117.45679 C33.3004017,119.069967 31.6872491,120.942376 30.4197531,123.074074 C29.152257,125.205772 28.2016493,127.510276 27.5679012,129.987654 C26.9341532,132.465033 26.617284,134.971181 26.617284,137.506173 L26.617284,156 Z" transform="translate(0 -114)"/>
</svg>
