<svg height="21" viewBox="0 0 17 21" width="17" xmlns="http://www.w3.org/2000/svg"><g transform="translate(0 1)"><path d="m13.6 6.20689655c-1.8777681 0-3.4-1.54384569-3.4-3.44827586s1.5222319-3.44827586 3.4-3.44827586 3.4 1.54384569 3.4 3.44827586-1.5222319 3.44827586-3.4 3.44827586zm0-1.37931034c1.1266609 0 2.04-.92630742 2.04-2.06896552s-.9133391-2.06896552-2.04-2.06896552-2.04.92630742-2.04 2.06896552.9133391 2.06896552 2.04 2.06896552zm0 15.17241379c-1.8777681 0-3.4-1.5438457-3.4-3.4482759 0-1.9044301 1.5222319-3.4482758 3.4-3.4482758s3.4 1.5438457 3.4 3.4482758c0 1.9044302-1.5222319 3.4482759-3.4 3.4482759zm0-1.3793103c1.1266609 0 2.04-.9263075 2.04-2.0689656s-.9133391-2.0689655-2.04-2.0689655-2.04.9263074-2.04 2.0689655.9133391 2.0689656 2.04 2.0689656zm-10.2-5.5172414c-1.87776815 0-3.4-1.5438457-3.4-3.44827589 0-1.90443017 1.52223185-3.44827586 3.4-3.44827586s3.4 1.54384569 3.4 3.44827586c0 1.90443019-1.52223185 3.44827589-3.4 3.44827589zm0-1.3793104c1.12666089 0 2.04-.9263074 2.04-2.06896549 0-1.1426581-.91333911-2.06896551-2.04-2.06896551s-2.04.92630741-2.04 2.06896551c0 1.14265809.91333911 2.06896549 2.04 2.06896549z"/><path d="m5.547 9.222-.7-1.183 6.266-3.813.7 1.183z"/><path d="m5.547 16.119-.7-1.183 6.266-3.813.7 1.183z" transform="matrix(1 0 0 -1 0 27.241)"/></g></svg>