<svg enable-background="new 0.482 1.16 20 20.005" height="20.005" viewBox=".482 1.16 20 20.005" width="20" xmlns="http://www.w3.org/2000/svg"><path d="m733.268 2561.742h-.024c-.695 0-1.261-.201-1.698-.607-.436-.403-.655-.904-.655-1.5 0-.61.222-1.112.666-1.511.445-.396 1.028-.595 1.753-.595.711 0 1.28.199 1.711.595.428.399.65.901.665 1.511 0 .595-.22 1.097-.665 1.5-.443.407-1.028.607-1.753.607zm-1.977 1.915h3.997v11.873h-3.997zm10.392 11.872v-6.894c0-.736.21-1.304.633-1.703.421-.396.949-.595 1.587-.595.65 0 1.175.221 1.575.661.399.438.601 1.112.601 2.019v6.512h3.995v-6.894c0-1.688-.439-3.003-1.32-3.946-.881-.944-2.04-1.416-3.475-1.416-1.464 0-2.663.674-3.596 2.022l-.135-1.639h-3.928l.065 2.681v9.191h3.998z" fill="#005c9c" transform="translate(-730 -2556)"/></svg>