<svg height="18" viewBox="0 0 19 18" width="19" xmlns="http://www.w3.org/2000/svg"><path d="m732.631028 2560.61302h-.023077c-.669231 0-1.213846-.19314-1.633846-.58385-.42-.38775-.63077-.86987-.63077-1.44339 0-.5868.213847-1.07039.641539-1.45372.427692-.38186.989231-.57353 1.687692-.57353.684616 0 1.232308.19167 1.646154.57353.412308.38333.626154.86692.64 1.45372 0 .57352-.212308 1.05564-.64 1.44339-.427692.39071-.990769.58385-1.687692.58385zm-1.903077 1.84295h3.846154v11.42628h-3.846154zm10 11.42628v-6.63462c0-.70916.203077-1.25467.609231-1.63801.406153-.38186.915384-.57352 1.527692-.57352.627692 0 1.132308.2123 1.516923.63545.384615.42314.576923 1.07185.576923 1.94467v6.26603h3.846154v-6.63462c0-1.62326-.423077-2.88974-1.270769-3.79794-.847693-.90821-1.963077-1.36231-3.344616-1.36231-1.40923 0-2.563077.64872-3.461538 1.94615l-.127692-1.57756h-3.781539l.063077 2.58013v8.84615z" fill="#fff" fill-rule="evenodd" transform="translate(-730 -2556)"/></svg>