<svg width="980" height="784" xmlns="http://www.w3.org/2000/svg"><g fill="#FFF" fill-rule="nonzero"><path d="M850.1 474.7s-20.6-78.4-117-101.5c0 0-29.6-3.9-12.9-33.4 0 0 42.4-87.4-41.1-123.4 0 0-74.6-18-164.5 28.3 0 0-59.1 33.4-30.8-39.8 0 0 13.9-95.3-69.4-102.8-70.7-6.4-233.9 47.6-386.9 296.9 0 0-111.8 201.8 115.7 322.6 0 0 190.2 113.1 458.9 33.4-.1-.1 272.4-90.1 248-280.3zM390.3 726.6c-191.8 0-296-83.7-296-187s150.8-202.4 314.3-202.4 277.6 70.2 277.6 173.5-132.5 215.9-295.9 215.9z"/><path d="M369.1 409.5c-84.1 0-148.7 63.8-158.1 138.8-11.6 92.5 55.9 138.8 158.1 135 84.1-3.2 147.5-61.4 152.3-136.9 5.8-90.6-68.2-136.9-152.3-136.9zM312.2 629c-28.2 0-51.4-19.8-51.4-46.9 0-27.2 26.4-48.2 54.3-52.1 28-3.9 52.4 17.2 52.4 44.3 0 27.1-27.1 54.7-55.3 54.7zm88.7-81.7c-11.2 0-20.2-9.1-20.2-20.2 0-11.2 9.1-20.2 20.2-20.2 11.2 0 20.2 9.1 20.2 20.2 0 11.2-9 20.2-20.2 20.2zM675 55.1c4.5-1.6 9.2-2.7 13.8-3.7 5.1-1.1 10.3-2 15.5-2.8 3.9-.6-6.6.8-2.7.4.6-.1 1.2-.1 1.8-.2 1.6-.2 3.1-.4 4.7-.5 3.7-.4 7.5-.6 11.2-.8 8.5-.4 17-.4 25.5.2 4.3.3 8.5.6 12.8 1.1.9.1 1.8.3 2.6.3-7.3-.6-2.5-.3-.9-.1 2.7.4 5.4.9 8.2 1.4 10.1 1.9 20.1 4.5 29.9 7.8 4.8 1.6 10.3 3.1 14.8 5.5-5.7-3.2 1.8.9 3.4 1.6 3 1.4 6.1 2.9 9 4.5 11.7 6.1 22.8 13.3 33.4 21.1.8.6 3.4 2.7-.1-.1 1.5 1.2 3 2.4 4.6 3.7 2.6 2.1 5.1 4.3 7.6 6.5 5.3 4.7 10.4 9.6 15.2 14.7 4.1 4.3 7.9 8.8 11.7 13.4 3.6 4.3-2.1-2.8 0 0 .8 1.1 1.7 2.3 2.5 3.4 1.9 2.7 3.8 5.4 5.6 8.2 2.9 4.5 5.6 9.1 8.2 13.8.7 1.3 7.2 15.2 7.3 15.2-.4.1-2.1-5.1-.1 0 .4.9.7 1.8 1.1 2.8.9 2.5 1.8 5 2.7 7.6 1.6 5 3.1 10 4.3 15 1.1 4.7 2.1 9.4 2.9 14.1.3 2 .9 9.7.3 1.8.2 2.6.6 5.2.8 7.8.8 8.7 1 17.5.8 26.2-.2 8-1.5 15.9-1.9 23.8.4-8.6.2-1.2-.2 1.1-.3 2-.7 4-1 5.9-.7 3.7-1.4 7.4-2.3 11-1.4 6.1-3 12.1-4.8 18-1.2 3.9-2.6 7.9-4 11.7-.4 1.1-.8 2.1-1.3 3.2-1 2.6 3.1-7.2 1.8-4.3-4.9 11.1-3.6 25.5 8.3 31.8 10.1 5.4 26.5 3.5 31.8-8.3 7.6-17.1 12.7-35.2 15.8-53.6 6.7-39.3 5.9-80.2-6.8-118.3C936.2 68.9 835.7 2.3 733.8.9c-17.7-.3-35.6 1.5-53 4.9-6.2 1.2-12.4 2.6-18.4 4.6-11.5 4-20.3 16.1-16.2 28.6 3.9 11.2 16.5 20.4 28.8 16.1z"/><path d="M698.2 173c1.8-.5 3.6-.9 5.5-1.3s3.8-.7 5.7-1c2.9-.5-3.4.3-1.3.2.7-.1 1.5-.2 2.2-.3 1.6-.2 3.2-.3 4.8-.4 6.8-.5 13.6-.4 20.4.2.8.1 1.7.2 2.5.3 4.1.4-2.1-.6.4.1 1.9.5 3.9.7 5.9 1.1 4.3.9 8.6 2.1 12.7 3.6.9.3 1.8.7 2.7 1 2.6 1-3.2-1.6 1 .4 1.8.9 3.6 1.7 5.4 2.7 2 1.1 4 2.3 6 3.5 1.1.7 2.2 1.4 3.3 2.2.3.2 3.7 2.9 2.1 1.5 8.2 6.6 13.3 12.4 18 20.7 1 1.8 1.9 3.6 2.8 5.5 2.2 4.3-.5-1.5.5 1.1.5 1.2.9 2.3 1.3 3.5 1.4 4.1 2.5 8.3 3.3 12.5.2 1.1.4 2.3.6 3.4.5 2.7-.3-3.7.1.6.2 1.8.4 3.5.5 5.3.3 3.9.3 7.9.2 11.8-.1 3.8-.5 7.6-.9 11.4-.1 1.4.5 1.8.2-1.3.1.7-.3 1.9-.4 2.6-.2 1.3-.5 2.6-.7 3.9-.5 2.6-1.1 5.3-1.9 7.9-2.5 8 2.9 16.9 10.8 19.1 8.3 2.3 16.6-2.8 19.1-10.8 8.6-27.8 6.3-60.5-5.9-86.7-18.3-39.1-61.9-59.3-103.6-58.4-10.4.2-21.3 1.3-31.4 4.2-8 2.4-13.1 10.9-10.8 19.1 2 8 10.9 13.2 18.9 10.8z"/></g></svg>