<svg height="22" viewBox="0 0 22 22" width="22" xmlns="http://www.w3.org/2000/svg"><path d="m16.263466 8.84819082c-.2705301.14707123-1.6008765.8592244-1.8501815.95988966s-.4313373.1531397-.6252412-.11423008c-.1942637-.26629888-.7461164-.8627941-.913399-1.03949376-.1680021-.17669965-.3295287-.19312023-.6000588-.04569203-.2705302.14671426-1.1483141.46905728-2.1656801 1.43965599-.79216406.7553464-1.31163948 1.6716859-1.46237369 1.9515496-.15073422.2795067-.00107925.4222943.14210027.553302.12878961.1181567.28779802.3094921.43169703.4640597.14353926.1545675.19426366.2666558.29283448.4458543.09893057.1791984.05899859.3405484-.00467672.4797663-.06403506.1395749-.56444386 1.5060523-.77345717 2.06221-.20901331.5558007-.44212971.4733409-.60293685.4794093-.16080714.0060685-.34391863.0356969-.52774962.0424794-.18383098.0067824-.48493966-.0503327-.7479151-.3152037-.26297543-.2638001-1.00009811-.8992049-1.05082251-2.245335-.0507244-1.3457732.88749714-2.6833361 1.01844524-2.8703878.1309481-.1877657 1.79226215-3.10527344 4.55332444-4.30540325 2.7614219-1.19941587 2.7754521-.8338796 3.2823363-.80674996.5072441.02641571 1.6562776.60113581 1.9102594 1.23118611.2539817.62969333.2744874 1.17764076.2097328 1.29436963-.0647546.11637189-.2460673.19204932-.5162377.33876359m-5.0638061-6.48612689c-1.82607845 0-3.52660499.5436638-4.94652846 1.47499594l-3.45501521-1.09732273 1.12313177 3.3126724c-1.07636459 1.47106929-1.71203846 3.27840338-1.71203846 5.23066686 0 4.9197469 4.03312947 8.9217265 8.99045036 8.9217265 4.9576806 0 8.9908101-4.0019796 8.9908101-8.9217265 0-4.91903291-4.0331295-8.92101247-8.9908101-8.92101247m0 19.63793607c-5.96461395 0-10.7999804-4.7980204-10.7999804-10.7169236 0-2.02472819.56660235-3.91809181 1.54979233-5.53373355l-1.94947183-5.74934285 5.97972332 1.89943209c1.5472741-.8488723 3.32658534-1.33292227 5.21993658-1.33292227 5.9646139 0 10.8003401 4.79837741 10.8003401 10.71656658 0 5.9189032-4.8357262 10.7169236-10.8003401 10.7169236" fill="#fff" fill-rule="evenodd" transform="matrix(0 -1 1 0 0 22)"/></svg>