<svg height="18" viewBox="0 0 22 18" width="22" xmlns="http://www.w3.org/2000/svg"><path d="m124.4459 3048.51736c-.576347.8625-1.2825 1.59735-2.115 2.20455v.55028c0 1.13505-.164424 2.26837-.49327 3.40342-.328846 1.13333-.8325 2.22353-1.514423 3.2706-.680192 1.04535-1.493654 1.96823-2.438654 2.7669-.94673.79868-2.080384 1.43693-3.402692 1.91648s-2.745.7176-4.266346.7176c-2.563269 0-4.744039-.57443-6.538846-1.725.335769.0483.673269.07245 1.010769.07245 1.841538 0 3.605192-.67103 5.2875-2.01308-.913846-.01552-1.734231-.29842-2.462885-.85042-.730384-.55028-1.230577-1.2489-1.504038-2.09588.273461.0483.536538.07245.794423.07245.384231 0 .759808-.0483 1.130192-.1449-.977884-.19147-1.791346-.67792-2.440384-1.46107-.649039-.78143-.972693-1.68533-.972693-2.70653v-.0483c.6075.33465 1.249616.51233 1.921154.52785-1.265192-.84697-1.898654-2.0217-1.898654-3.52245 0-.70207.193847-1.39035.578077-2.06137 1.073077 1.29375 2.365962 2.32185 3.880385 3.07912 1.514423.759 3.146538 1.1868 4.892885 1.28168-.064039-.27083-.096924-.59858-.096924-.98153 0-1.1661.413654-2.16487 1.239231-2.9946.823846-.83145 1.829423-1.24717 3.016731-1.24717 1.216731 0 2.260385.4485 3.125769 1.34205.943269-.19148 1.841539-.53475 2.691346-1.02983-.320192 1.02293-.94673 1.80435-1.874423 2.34773.816923-.09488 1.633846-.31913 2.45077-.67103" fill="#fff" fill-rule="evenodd" transform="translate(-103 -3046)"/></svg>