<svg enable-background="new 0 1.589 20 16.822" height="16.822" viewBox="0 1.589 20 16.822" width="20" xmlns="http://www.w3.org/2000/svg"><path d="m123 3049.581c-.555.862-1.233 1.597-2.035 2.204v.551c0 1.136-.159 2.269-.477 3.403-.316 1.132-.801 2.218-1.457 3.263s-1.439 1.967-2.35 2.766c-.912.799-2.002 1.439-3.276 1.918-1.273.48-2.645.717-4.109.717-2.468 0-4.567-.572-6.296-1.725.323.047.648.072.974.072 1.772 0 3.472-.672 5.092-2.014-.88-.016-1.67-.299-2.372-.85-.703-.551-1.186-1.25-1.449-2.096.264.047.517.072.765.072.37 0 .732-.051 1.089-.145-.941-.191-1.726-.674-2.351-1.455s-.937-1.686-.937-2.707v-.048c.585.334 1.203.512 1.851.526-1.219-.847-1.829-2.021-1.829-3.521 0-.702.188-1.39.558-2.062 1.032 1.294 2.277 2.322 3.736 3.079 1.458.76 3.03 1.188 4.712 1.282-.062-.271-.094-.599-.094-.98 0-1.167.398-2.165 1.192-2.995.795-.831 1.765-1.247 2.905-1.247 1.173 0 2.177.448 3.011 1.342.907-.192 1.772-.535 2.592-1.03-.31 1.022-.912 1.804-1.805 2.348.788-.092 1.573-.315 2.36-.668" fill="#005c9c" transform="translate(-103 -3046)"/></svg>