<svg height="35" viewBox="0 0 35 35" width="35" xmlns="http://www.w3.org/2000/svg"><g fill="none" fill-rule="evenodd"><rect height="34.075" rx="40" stroke="#cad7e0" width="34.578571" x=".326786" y=".725"/><path d="m26.5187353 13.1380477c-.4853603.7157622-1.080036 1.3255917-1.781112 1.8294883v.4566563c0 .9419431-.1384661 1.8824546-.4153985 2.8243977-.2769323.9405116-.7010759 1.8452351-1.2753461 2.7141704-.5728126.8675038-1.2578557 1.6333694-2.0536717 2.2961653-.7972735.6627958-1.7519612 1.1924598-2.8655206 1.5904236s-2.311656.5955142-3.5928323.5955142c-2.1586145 0-3.9951129-.4766976-5.50658029-1.4315245.28276246.0400827.56698246.0601241.85120246.0601241 1.55082093 0 3.03605263-.556863 4.45278003-1.6705891-.7695803-.0128837-1.4604536-.2476537-2.0740773-.7057415-.6150812-.4566563-1.0363098-1.0364237-1.2666009-1.7393023.2302911.0400827.4518369.0601241.6690102.0601241.3235735 0 .6398593-.0400827.9517726-.1202481-.8235093-.1588992-1.5085523-.5625891-2.0551292-1.2125012-.546577-.6484806-.81913666-1.3985994-.81913666-2.2460619v-.0400827c.51159596.2777158 1.05234276.4251628 1.61786766.4380465-1.0654606-.7028785-1.59891966-1.6777467-1.59891966-2.9231729 0-.5826305.16324431-1.1538088.48681786-1.7106718.9036738 1.0736434 1.9924551 1.926832 3.2678012 2.5552712 1.2753462.6298708 2.6498049.9848888 4.1204612 1.0636227-.0539289-.2247494-.0816221-.496739-.0816221-.8145374 0-.9677106.3483517-1.7965632 1.0435975-2.4851265.6937883-.6899948 1.5406182-1.0349922 2.5404895-1.0349922 1.0246496 0 1.9035453.3721964 2.6323145 1.113726.7943585-.1588992 1.5508209-.4437726 2.2664723-.8546201-.2696446.848894-.7972735 1.4973746-1.5785142 1.9483048.6879582-.0787338 1.3759164-.264832 2.0638745-.556863" fill="#cad7e0"/></g></svg>