<svg enable-background="new -0.173 0.225 35.579 35.075" height="35.075" viewBox="-.173 .225 35.579 35.075" width="35.579" xmlns="http://www.w3.org/2000/svg"><g transform="translate(44)"><path d="m-26.384.725c9.548 0 17.289 7.628 17.289 17.038 0 9.409-7.741 17.037-17.289 17.037-9.549 0-17.29-7.628-17.29-17.037.001-9.41 7.741-17.038 17.29-17.038z" fill="none" stroke="#cad7e0"/><path d="m-28.142 13.283c.117.216.683 1.274.763 1.474.08.197.122.342-.091.497-.211.154-.686.594-.826.727s-.153.262-.036.478c.117.215.373.913 1.144 1.722.601.632 1.329 1.045 1.551 1.164.222.12.335.002.439-.113.095-.103.246-.229.368-.343.124-.114.212-.154.355-.234.142-.076.271-.046.381.005.11.052 1.197.449 1.639.615.441.167.376.352.381.481.005.127.027.273.034.419.005.146-.041.386-.25.595-.211.209-.716.796-1.784.837-1.07.04-2.134-.707-2.282-.811-.15-.104-2.467-1.426-3.421-3.624-.953-2.198-.663-2.208-.641-2.612.021-.404.478-1.318.978-1.52.501-.203.937-.219 1.029-.167.092.05.153.195.269.41m-5.154 4.029c0 1.453.432 2.807 1.172 3.938l-.872 2.749 2.632-.896c1.169.858 2.605 1.363 4.156 1.363 3.91 0 7.09-3.21 7.09-7.154s-3.18-7.154-7.09-7.154c-3.908.001-7.088 3.21-7.088 7.154m15.605 0c0 4.747-3.812 8.595-8.517 8.595-1.608 0-3.113-.452-4.396-1.233l-4.569 1.551 1.509-4.758c-.674-1.231-1.059-2.647-1.059-4.154 0-4.747 3.813-8.595 8.515-8.595 4.705 0 8.517 3.848 8.517 8.594" fill="#cad7e0"/></g></svg>