<svg height="14" viewBox="0 0 14 14" width="14" xmlns="http://www.w3.org/2000/svg"><path d="m247.75 26c-2.900463 0-5.25 2.349537-5.25 5.25 0 1.037037.291667 1.9930556.810185 2.8032407l-3.969907 3.9537037c-.453704.4537037-.453704 1.1990741 0 1.6527778.226852.2268519.518518.3402778.826389.3402778.291666 0 .599537-.1134259.826389-.3402778l3.953703-3.9699074c.810185.5185185 1.766204.8101852 2.803241.8101852 2.900463 0 5.25-2.349537 5.25-5.25s-2.349537-5.25-5.25-5.25zm0 8.75c-1.928241 0-3.5-1.5717593-3.5-3.5s1.571759-3.5 3.5-3.5 3.5 1.5717593 3.5 3.5-1.571759 3.5-3.5 3.5z" fill="#8c8f94" fill-rule="evenodd" transform="matrix(-1 0 0 1 253 -26)"/></svg>